<?xml version="1.0" encoding="UTF-8"?>
<svg width="1252px" height="722px" viewBox="0 0 1252 722" version="1.1" xmlns="http://www.w3.org/2000/svg" xmlns:xlink="http://www.w3.org/1999/xlink">
    <!-- Generator: Sketch 47.1 (45422) - http://www.bohemiancoding.com/sketch -->
    <title>Group</title>
    <desc>Created with Sketch.</desc>
    <defs></defs>
    <g id="Page-1" stroke="none" stroke-width="1" fill="none" fill-rule="evenodd">
        <g id="Logotipos-Gradiant" transform="translate(-1529.000000, 0.000000)">
            <g id="Group" transform="translate(1529.000000, 0.000000)">
                <path d="M207.893358,586.430505 L207.893358,598.392228 C207.893358,602.715953 208.894995,606.00105 210.909918,608.218345 C212.924841,610.43564 216.29081,611.544288 221.019472,611.544288 C226.342129,611.544288 230.668972,610.51733 234,608.475085 L234,614.012487 C230.517561,616.002217 226.24313,617 221.165059,617 C214.654413,617 209.832575,615.494573 206.693722,612.477885 C203.566515,609.467032 202,604.764033 202,598.392228 L202,586.430505 C202,579.947835 203.543221,575.093126 206.658781,571.854709 C209.768517,568.622126 214.549591,567 221.019472,567 C222.95869,567 224.73485,567.145875 226.353776,567.449294 C227.972702,567.741043 229.195632,568.061968 230.04586,568.382892 C230.890264,568.703816 232.060783,569.217295 233.551592,569.911658 L233.551592,575.513245 C229.469336,573.471 225.229845,572.449877 220.79818,572.449877 C216.273339,572.449877 212.988899,573.5877 210.944859,575.851675 C208.906642,578.127319 207.893358,581.645816 207.893358,586.430505" id="Fill-304" fill="#0A0B09"></path>
                <path d="M256.573516,616 C250.698093,616 246.469435,614.681479 243.881661,612.038655 C241.293887,609.39583 240,605.532796 240,600.449551 L240,593.550449 C240,583.187338 245.522545,578 256.573516,578 C262.401889,578 266.589378,579.318521 269.159508,581.961345 C271.717876,584.60417 273,588.472987 273,593.550449 L273,600.449551 C273,610.812662 267.524505,616 256.573516,616 M267.348066,600.449551 L267.348066,593.550449 C267.348066,589.999696 266.577615,587.391569 265.048476,585.737635 C263.513456,584.083701 260.696311,583.256734 256.573516,583.256734 C252.409553,583.256734 249.545357,584.083701 247.98093,585.737635 C246.428266,587.391569 245.651934,589.999696 245.651934,593.550449 L245.651934,600.449551 C245.651934,604.000304 246.440029,606.608431 248.016218,608.262365 C249.610052,609.910516 252.450722,610.737483 256.573516,610.737483 C260.696311,610.737483 263.513456,609.910516 265.048476,608.262365 C266.577615,606.608431 267.348066,604.000304 267.348066,600.449551" id="Fill-305" fill="#0A0B09"></path>
                <path d="M284.575707,592.129112 L284.575707,616 L279,616 L279,592.129112 C279,582.717567 284.17537,578 294.537713,578 C299.979974,578 303.925323,579.214773 306.350552,581.632526 C308.775781,584.050279 310,587.541279 310,592.129112 L310,616 L304.348868,616 L304.348868,592.129112 C304.348868,589.10987 303.65263,586.892613 302.271757,585.477343 C300.873479,584.06797 298.297398,583.366232 294.537713,583.366232 C290.766423,583.366232 288.167135,584.085661 286.728243,585.524519 C285.300955,586.95748 284.575707,589.162942 284.575707,592.129112" id="Fill-306" fill="#0A0B09"></path>
                <path d="M322.57675,592.129112 L322.57675,616 L317,616 L317,592.129112 C317,582.717567 322.182142,578 332.540621,578 C337.983901,578 341.929989,579.214773 344.355672,581.632526 C346.787158,584.050279 348,587.541279 348,592.129112 L348,616 L342.34781,616 L342.34781,592.129112 C342.34781,589.10987 341.657244,586.892613 340.270311,585.477343 C338.877574,584.06797 336.306814,583.366232 332.540621,583.366232 C328.768626,583.366232 326.168851,584.085661 324.729689,585.524519 C323.296331,586.95748 322.57675,589.162942 322.57675,592.129112" id="Fill-307" fill="#0A0B09"></path>
                <path d="M386,592.81601 C386,595.389438 385.802177,597.488662 385.406532,599.113681 L360.585586,599.113681 L360.585586,601.340131 C360.585586,604.694263 361.499062,607.099985 363.308559,608.56308 C365.123874,610.01461 368.085398,610.743266 372.216404,610.743266 C377.033971,610.743266 381.205706,610.008827 384.731607,608.528382 L384.731607,613.785116 C381.205706,615.265561 377.033971,616 372.216404,616 C366.351539,616 362.016892,614.797139 359.212462,612.379851 C356.396396,609.950997 355,606.001217 355,600.52473 L355,593.637194 C355,583.216253 360.236486,578 370.721096,578 C375.643393,578 379.419482,579.254908 382.05518,581.747375 C384.68506,584.234059 386,587.929387 386,592.81601 M360.585586,592.000609 L360.585586,594.446812 L380.711149,594.446812 L380.711149,592.000609 C380.711149,585.98052 377.353979,582.973368 370.645458,582.973368 C363.936937,582.973368 360.585586,585.98052 360.585586,592.000609" id="Fill-308" fill="#0A0B09"></path>
                <path d="M391,600.669305 L391,593.336478 C391,588.496119 392.34742,584.731396 395.04226,582.036524 C397.731317,579.347436 401.895018,578 407.52758,578 C410.67927,578 413.593861,578.618779 416.265569,579.856338 L416.265569,585.188251 C413.350979,583.904429 410.488434,583.262517 407.672153,583.262517 C403.520018,583.262517 400.628559,584.089484 399.003559,585.743418 C397.366993,587.391569 396.563167,589.953432 396.563167,593.405874 L396.563167,600.594126 C396.563167,604.347284 397.45952,606.972759 399.258007,608.482118 C401.06806,609.985695 404.011566,610.743266 408.117438,610.743266 C411.379004,610.743266 414.339858,610.153401 417,608.962106 L417,614.294019 C413.836744,615.427484 410.760231,616 407.741548,616 C402.068505,616 397.852758,614.756658 395.117438,612.258408 C392.370552,609.771724 391,605.897124 391,600.669305" id="Fill-309" fill="#0A0B09"></path>
                <path d="M419,583.944781 L419,579.561211 L425.357459,578.667078 L426.415066,569 L431.029542,569 L431.029542,578.667078 L445.635155,578.667078 L445.635155,583.944781 L431.029542,583.944781 L431.029542,602.837678 C431.029542,605.711674 431.632201,607.743792 432.807976,608.939839 C433.995569,610.124274 435.726736,610.728104 437.995569,610.728104 C441.72969,610.728104 444.725258,610.222977 447,609.230142 L447,614.51365 C444.577548,615.506485 441.599705,616 438.072378,616 C429.599705,616 425.357459,611.610624 425.357459,602.837678 L425.357459,583.944781 L419,583.944781" id="Fill-310" fill="#0A0B09"></path>
                <path d="M453.036624,570.204777 C452.345541,569.50499 452,568.665246 452,567.66805 C452,566.665022 452.345541,565.807783 453.036624,565.090501 C453.727707,564.367388 454.569268,564 455.572452,564 C456.519904,564 457.328025,564.367388 458.002389,565.090501 C458.665605,565.807783 459,566.665022 459,567.66805 C459,568.665246 458.665605,569.50499 458.002389,570.204777 C457.328025,570.898733 456.519904,571.248626 455.572452,571.248626 C454.569268,571.248626 453.727707,570.898733 453.036624,570.204777 L453.036624,570.204777 Z M452.852707,616 L458.208599,616 L458.208599,579.173713 L452.852707,579.173713 L452.852707,616 Z" id="Fill-311" fill="#0A0B09"></path>
                <path d="M469.70922,579 L477.138298,607.857543 C477.593381,609.506376 478.131206,610.623328 478.769504,611.178849 C479.401891,611.72846 480.329787,612.006221 481.547281,612.006221 C482.764775,612.006221 483.692671,611.72846 484.325059,611.16703 C484.957447,610.611509 485.501182,609.506376 485.956265,607.833904 L493.3026,579 L499,579 L491.683215,607.437947 C490.731678,611.131571 489.608747,613.649145 488.29669,614.984759 C486.990544,616.332193 484.72104,617 481.51182,617 C478.29078,617 476.015366,616.332193 474.679669,614.996579 C473.349882,613.655054 472.20922,611.1493 471.251773,607.467496 L464,579 L469.70922,579" id="Fill-312" fill="#0A0B09"></path>
                <path d="M505.031873,570.204777 C504.340239,569.50499 504,568.665246 504,567.66805 C504,566.665022 504.340239,565.807783 505.031873,565.090501 C505.723506,564.367388 506.565737,564 507.575299,564 C508.517928,564 509.326693,564.367388 510.001594,565.090501 C510.665339,565.807783 511,566.665022 511,567.66805 C511,568.665246 510.665339,569.50499 510.001594,570.204777 C509.326693,570.898733 508.517928,571.248626 507.575299,571.248626 C506.565737,571.248626 505.723506,570.898733 505.031873,570.204777 L505.031873,570.204777 Z M504.847809,616 L510.213546,616 L510.213546,579.173713 L504.847809,579.173713 L504.847809,616 Z" id="Fill-313" fill="#0A0B09"></path>
                <path d="M515,583.944781 L515,579.561211 L521.357459,578.667078 L522.415066,569 L527.029542,569 L527.029542,578.667078 L541.635155,578.667078 L541.635155,583.944781 L527.029542,583.944781 L527.029542,602.837678 C527.029542,605.711674 527.632201,607.743792 528.807976,608.939839 C529.995569,610.124274 531.726736,610.728104 533.995569,610.728104 C537.72969,610.728104 540.725258,610.222977 543,609.230142 L543,614.51365 C540.577548,615.506485 537.599705,616 534.072378,616 C525.599705,616 521.357459,611.610624 521.357459,602.837678 L521.357459,583.944781 L515,583.944781" id="Fill-314" fill="#0A0B09"></path>
                <path d="M551.727918,579 L559.465631,607.386997 C559.926702,609.033384 560.494173,610.129023 561.162135,610.673912 C561.824185,611.224661 562.823172,611.500036 564.165006,611.500036 C565.288127,611.500036 566.186624,611.207084 566.854585,610.632899 C567.516636,610.064573 568.060463,608.980653 568.474244,607.386997 L575.295727,579 L581,579 L571.695828,615.964616 C570.38355,621.185011 568.367843,625.198446 565.636886,627.993203 C562.900017,630.811396 559.15825,632.135537 554.405675,631.989061 L553.187975,626.956155 C555.14457,627.055758 556.852896,626.850692 558.301132,626.358534 C559.761189,625.860516 560.978889,625.028534 561.954231,623.880164 C562.929573,622.731795 563.72758,621.524835 564.318696,620.271002 C564.921635,619.028888 565.500929,617.44695 566.050667,615.548625 C565.09897,616.093514 563.845803,616.368889 562.285256,616.368889 C559.790745,616.368889 557.952373,615.671664 556.805607,614.271356 C555.647019,612.871048 554.671677,610.644617 553.87367,607.586204 L546,579 L551.727918,579" id="Fill-315" fill="#0A0B09"></path>
                <path d="M598.19708,594.832719 C597.39708,594.054532 597,593.111275 597,592.002948 C597,590.900516 597.385401,589.957259 598.156204,589.167281 C598.927007,588.389094 599.890511,588 601.040876,588 C602.132847,588 603.067153,588.389094 603.837956,589.167281 C604.614599,589.957259 605,590.900516 605,592.002948 C605,593.111275 604.614599,594.054532 603.837956,594.832719 C603.067153,595.610906 602.132847,596 601.040876,596 C599.937226,596 598.991241,595.610906 598.19708,594.832719" id="Fill-316" fill="#0A0B09"></path>
                <polygon id="Fill-317" fill="#0A0B09" points="623 616 628.982 616 628.982 567 623 567"></polygon>
                <path d="M643.57675,592.129112 L643.57675,616 L638,616 L638,592.129112 C638,582.717567 643.187945,578 653.540621,578 C658.983901,578 662.929989,579.214773 665.355672,581.632526 C667.787158,584.050279 669,587.541279 669,592.129112 L669,616 L663.34781,616 L663.34781,592.129112 C663.34781,589.10987 662.657244,586.892613 661.270311,585.477343 C659.877574,584.06797 657.306814,583.366232 653.540621,583.366232 C649.768626,583.366232 647.168851,584.085661 645.729689,585.524519 C644.296331,586.95748 643.57675,589.162942 643.57675,592.129112" id="Fill-318" fill="#0A0B09"></path>
                <path d="M673,583.944781 L673,579.561211 L679.357459,578.667078 L680.415066,569 L685.029542,569 L685.029542,578.667078 L699.641064,578.667078 L699.641064,583.944781 L685.029542,583.944781 L685.029542,602.837678 C685.029542,605.711674 685.620384,607.743792 686.813885,608.939839 C688.001477,610.124274 689.726736,610.728104 692.001477,610.728104 C695.72969,610.728104 698.731167,610.222977 701,609.230142 L701,614.51365 C698.577548,615.506485 695.599705,616 692.072378,616 C683.599705,616 679.357459,611.610624 679.357459,602.837678 L679.357459,583.944781 L673,583.944781" id="Fill-319" fill="#0A0B09"></path>
                <path d="M736,592.81601 C736,595.389438 735.796397,597.488662 735.406643,599.113681 L710.584537,599.113681 L710.584537,601.340131 C710.584537,604.694263 711.497842,607.099985 713.306999,608.56308 C715.127791,610.01461 718.08876,610.743266 722.21899,610.743266 C727.035654,610.743266 731.212423,610.008827 734.731845,608.528382 L734.731845,613.785116 C731.212423,615.265561 727.035654,616 722.21899,616 C716.355226,616 712.021392,614.797139 709.217489,612.379851 C706.407769,609.950997 705,606.001217 705,600.52473 L705,593.637194 C705,583.216253 710.247138,578 720.72978,578 C725.645337,578 729.420717,579.254908 732.050103,581.747375 C734.685307,584.234059 736,587.929387 736,592.81601 M710.584537,592.000609 L710.584537,594.446812 L730.706324,594.446812 L730.706324,592.000609 C730.706324,585.98052 727.355601,582.973368 720.648339,582.973368 C713.941077,582.973368 710.584537,585.98052 710.584537,592.000609" id="Fill-320" fill="#0A0B09"></path>
                <path d="M743,605.936857 L743,563 L748.55759,563 L748.55759,604.96395 C748.55759,608.767666 749.81253,610.660732 752.339759,610.660732 C753.461687,610.660732 754.352289,610.51421 755,610.221166 L755,615.396329 C754.063133,615.80073 752.929639,616 751.593735,616 C749.020241,616 746.94988,615.202919 745.371084,613.597036 C743.786506,611.997014 743,609.447528 743,605.936857" id="Fill-321" fill="#0A0B09"></path>
                <path d="M759,605.936857 L759,563 L764.55759,563 L764.55759,604.96395 C764.55759,608.767666 765.81253,610.660732 768.339759,610.660732 C769.461687,610.660732 770.352289,610.51421 771,610.221166 L771,615.396329 C770.063133,615.80073 768.929639,616 767.593735,616 C765.020241,616 762.94988,615.202919 761.371084,613.597036 C759.786506,611.997014 759,609.447528 759,605.936857" id="Fill-322" fill="#0A0B09"></path>
                <path d="M776.03745,570.204777 C775.340239,569.50499 775,568.665246 775,567.66805 C775,566.665022 775.340239,565.807783 776.03745,565.090501 C776.729084,564.367388 777.565737,564 778.575299,564 C779.523506,564 780.326693,564.367388 781.001594,565.090501 C781.670916,565.807783 782,566.665022 782,567.66805 C782,568.665246 781.670916,569.50499 781.001594,570.204777 C780.326693,570.898733 779.523506,571.248626 778.575299,571.248626 C777.565737,571.248626 776.729084,570.898733 776.03745,570.204777 L776.03745,570.204777 Z M775.853386,616 L781.213546,616 L781.213546,579.173713 L775.853386,579.173713 L775.853386,616 Z" id="Fill-323" fill="#0A0B09"></path>
                <path d="M820.406343,592.117431 C820.406343,600.751682 815.169193,605.068807 804.694895,605.068807 C800.60115,605.068807 797.929256,605.24893 796.691061,605.626606 C795.458791,605.998471 794.830807,606.753823 794.830807,607.898471 C794.830807,608.938532 795.464715,609.624159 796.732532,609.943731 C797.994424,610.263303 800.648545,610.425994 804.694895,610.425994 C810.96881,610.425994 815.305454,611.181346 817.710751,612.697859 C820.116048,614.202752 821.318697,616.852294 821.318697,620.623242 C821.318697,624.83578 820.092351,627.787462 817.633734,629.472477 C815.186966,631.163303 810.868095,632 804.694895,632 C798.379509,632 794.013243,631.174924 791.61387,629.51315 C789.202649,627.851376 788,625.230887 788,621.663303 C788,618.089908 789.415926,615.434557 792.253703,613.703058 C790.180171,612.750153 789.13748,611.117431 789.13748,608.793272 C789.13748,605.516208 791.193239,603.581346 795.286984,602.977064 C791.033281,601.239755 788.912354,597.619878 788.912354,592.117431 L788.912354,591.22263 C788.912354,587.161162 790.298658,583.988685 793.083116,581.72844 C795.873497,579.474006 799.736191,578.352599 804.694895,578.352599 C807.627461,578.352599 810.234187,578.840673 812.515072,579.82844 L818.81861,575 L822,577.974924 L817.064994,582.884709 C819.29256,584.866055 820.406343,587.649235 820.406343,591.22263 L820.406343,592.117431 Z M804.694895,615.33578 C801.400941,615.33578 798.924551,615.219572 797.259801,614.963914 C794.878202,616.102752 793.699251,618.136391 793.699251,621.070642 C793.699251,623.493578 794.504966,625.120489 796.116397,625.939755 C797.7456,626.753211 800.60115,627.165749 804.694895,627.165749 C808.646454,627.165749 811.454609,626.747401 813.119359,625.904893 C814.784109,625.056575 815.62537,623.37737 815.62537,620.838226 C815.62537,618.514067 814.813731,617.003364 813.196376,616.340979 C811.573096,615.672783 808.747168,615.33578 804.694895,615.33578 L804.694895,615.33578 Z M814.635999,592.117431 L814.635999,591.22263 C814.635999,585.96422 811.324273,583.33211 804.694895,583.33211 C797.970727,583.33211 794.611605,585.96422 794.611605,591.22263 L794.611605,592.117431 C794.611605,594.790214 795.328454,596.806422 796.768078,598.137003 C798.213626,599.479205 800.855898,600.159021 804.694895,600.159021 C808.539815,600.159021 811.15839,599.479205 812.550619,598.137003 C813.936923,596.806422 814.635999,594.790214 814.635999,592.117431 L814.635999,592.117431 Z" id="Fill-324" fill="#0A0B09"></path>
                <path d="M856,592.81601 C856,595.389438 855.796397,597.488662 855.406643,599.113681 L830.584537,599.113681 L830.584537,601.340131 C830.584537,604.694263 831.497842,607.099985 833.306999,608.56308 C835.116157,610.01461 838.08876,610.743266 842.207356,610.743266 C847.035654,610.743266 851.200788,610.008827 854.726027,608.528382 L854.726027,613.785116 C851.200788,615.265561 847.035654,616 842.207356,616 C836.349409,616 832.021392,614.797139 829.211672,612.379851 C826.401952,609.950997 825,606.001217 825,600.52473 L825,593.637194 C825,583.216253 830.235504,578 840.718146,578 C845.645337,578 849.420717,579.254908 852.050103,581.747375 C854.685307,584.234059 856,587.929387 856,592.81601 M830.584537,592.000609 L830.584537,594.446812 L850.706324,594.446812 L850.706324,592.000609 C850.706324,585.98052 847.355601,582.973368 840.648339,582.973368 C833.941077,582.973368 830.584537,585.98052 830.584537,592.000609" id="Fill-325" fill="#0A0B09"></path>
                <path d="M867.57675,592.129112 L867.57675,616 L862,616 L862,592.129112 C862,582.717567 867.176338,578 877.540621,578 C882.983901,578 886.929989,579.214773 889.355672,581.632526 C891.781355,584.050279 893,587.541279 893,592.129112 L893,616 L887.34781,616 L887.34781,592.129112 C887.34781,589.10987 886.657244,586.892613 885.270311,585.477343 C883.877574,584.06797 881.295208,583.366232 877.540621,583.366232 C873.768626,583.366232 871.168851,584.085661 869.729689,585.524519 C868.296331,586.95748 867.57675,589.162942 867.57675,592.129112" id="Fill-326" fill="#0A0B09"></path>
                <path d="M900,600.669305 L900,593.336478 C900,588.496119 901.341637,584.731396 904.04226,582.036524 C906.731317,579.347436 910.883452,578 916.516014,578 C919.673488,578 922.593861,578.618779 925.259786,579.856338 L925.259786,585.188251 C922.345196,583.904429 919.476868,583.262517 916.66637,583.262517 C912.514235,583.262517 909.628559,584.089484 908.003559,585.743418 C906.366993,587.391569 905.557384,589.953432 905.557384,593.405874 L905.557384,600.594126 C905.557384,604.347284 906.45952,606.972759 908.258007,608.482118 C910.062278,609.985695 913.005783,610.743266 917.111655,610.743266 C920.367438,610.743266 923.334075,610.153401 926,608.962106 L926,614.294019 C922.836744,615.427484 919.748665,616 916.741548,616 C911.062722,616 906.846975,614.756658 904.111655,612.258408 C901.370552,609.771724 900,605.897124 900,600.669305" id="Fill-327" fill="#0A0B09"></path>
                <path d="M960,592.81601 C960,595.389438 959.796397,597.488662 959.406643,599.113681 L934.584537,599.113681 L934.584537,601.340131 C934.584537,604.694263 935.497842,607.099985 937.306999,608.56308 C939.127791,610.01461 942.08876,610.743266 946.21899,610.743266 C951.035654,610.743266 955.200788,610.008827 958.726027,608.528382 L958.726027,613.785116 C955.200788,615.265561 951.035654,616 946.21899,616 C940.349409,616 936.021392,614.797139 933.217489,612.379851 C930.401952,609.950997 929,606.001217 929,600.52473 L929,593.637194 C929,583.216253 934.235504,578 944.718146,578 C949.645337,578 953.420717,579.254908 956.050103,581.747375 C958.685307,584.234059 960,587.929387 960,592.81601 M934.584537,592.000609 L934.584537,594.446812 L954.706324,594.446812 L954.706324,592.000609 C954.706324,585.98052 951.355601,582.973368 944.648339,582.973368 C937.941077,582.973368 934.584537,585.98052 934.584537,592.000609" id="Fill-328" fill="#0A0B09"></path>
                <path d="M980.191241,594.832719 C979.391241,594.054532 979,593.111275 979,592.002948 C979,590.900516 979.385401,589.957259 980.156204,589.167281 C980.927007,588.389094 981.890511,588 983.035036,588 C984.127007,588 985.061314,588.389094 985.832117,589.167281 C986.614599,589.957259 987,590.900516 987,592.002948 C987,593.111275 986.614599,594.054532 985.832117,594.832719 C985.061314,595.610906 984.127007,596 983.035036,596 C981.937226,596 980.991241,595.610906 980.191241,594.832719" id="Fill-329" fill="#0A0B09"></path>
                <path d="M1003,614.315906 L1003,608.632629 C1007.27688,610.529 1012.20766,611.474268 1017.78645,611.474268 C1021.66274,611.474268 1024.5081,611.007469 1026.32253,610.050531 C1028.12518,609.111098 1029.0324,607.459797 1029.0324,605.119967 C1029.0324,603.322791 1028.50221,601.86988 1027.44772,600.749562 C1026.39323,599.629245 1024.60825,598.293033 1022.09278,596.740927 L1010.92342,589.949002 C1005.93962,586.961489 1003.45361,582.993698 1003.45361,578.063135 C1003.45361,574.229548 1004.75552,571.428755 1007.37703,569.654919 C1009.99853,567.886918 1013.93962,567 1019.22386,567 C1024.20177,567 1028.73785,567.898588 1032.80854,569.695764 L1032.80854,575.303186 C1029.0324,573.453495 1024.5081,572.537402 1019.22386,572.537402 C1015.75405,572.537402 1013.26215,572.986696 1011.75405,573.885284 C1010.24595,574.772202 1009.48601,576.248454 1009.48601,578.290699 C1009.48601,579.89532 1009.90427,581.190687 1010.72901,582.159295 C1011.54786,583.139573 1012.89102,584.230715 1014.7408,585.432723 L1026.13402,592.463881 C1029.06186,594.249387 1031.27099,596.046563 1032.76141,597.861244 C1034.25184,599.675925 1035,602.068269 1035,605.049947 C1035,613.020539 1029.20913,617 1017.63918,617 C1012.10751,617 1007.22975,616.113082 1003,614.315906" id="Fill-330" fill="#0A0B09"></path>
                <path d="M1072,592.81601 C1072,595.389438 1071.80218,597.488662 1071.40653,599.113681 L1046.58559,599.113681 L1046.58559,601.340131 C1046.58559,604.694263 1047.49906,607.099985 1049.30856,608.56308 C1051.12387,610.01461 1054.0854,610.743266 1058.2164,610.743266 C1063.03397,610.743266 1067.21152,610.008827 1070.73161,608.528382 L1070.73161,613.785116 C1067.21152,615.265561 1063.03397,616 1058.2164,616 C1052.35154,616 1048.01689,614.797139 1045.21246,612.379851 C1042.40803,609.950997 1041,606.001217 1041,600.52473 L1041,593.637194 C1041,583.216253 1046.2423,578 1056.72691,578 C1061.64339,578 1065.41948,579.254908 1068.05518,581.747375 C1070.68506,584.234059 1072,587.929387 1072,592.81601 M1046.58559,592.000609 L1046.58559,594.446812 L1066.71115,594.446812 L1066.71115,592.000609 C1066.71115,585.98052 1063.35398,582.973368 1056.64546,582.973368 C1049.93694,582.973368 1046.58559,585.98052 1046.58559,592.000609" id="Fill-331" fill="#0A0B09"></path>
                <path d="M1077,600.669305 L1077,593.336478 C1077,588.496119 1078.34164,584.731396 1081.04226,582.036524 C1083.73132,579.347436 1087.88345,578 1093.51601,578 C1096.67349,578 1099.59386,578.618779 1102.25979,579.856338 L1102.25979,585.188251 C1099.3452,583.904429 1096.47687,583.262517 1093.66637,583.262517 C1089.51423,583.262517 1086.62856,584.089484 1085.00356,585.743418 C1083.36699,587.391569 1082.55738,589.953432 1082.55738,593.405874 L1082.55738,600.594126 C1082.55738,604.347284 1083.45952,606.972759 1085.25801,608.482118 C1087.06228,609.985695 1090.00578,610.743266 1094.11165,610.743266 C1097.36744,610.743266 1100.33407,610.153401 1103,608.962106 L1103,614.294019 C1099.83674,615.427484 1096.74867,616 1093.74155,616 C1088.06272,616 1083.84698,614.756658 1081.11165,612.258408 C1078.37055,609.771724 1077,605.897124 1077,600.669305" id="Fill-332" fill="#0A0B09"></path>
                <path d="M1113.57199,579 L1113.57199,602.8724 C1113.57199,605.84539 1114.29171,608.051537 1115.73114,609.484943 C1117.16476,610.924247 1119.77083,611.638001 1123.53773,611.638001 C1127.30462,611.638001 1129.89328,610.936045 1131.30369,609.526234 C1132.7199,608.116423 1133.42221,605.904378 1133.42221,602.8724 L1133.42221,579 L1139,579 L1139,602.8724 C1139,607.455759 1137.78113,610.95964 1135.35499,613.378143 C1132.92885,615.796647 1128.98783,617 1123.53773,617 C1113.17731,617 1108,612.292766 1108,602.8724 L1108,579 L1113.57199,579" id="Fill-333" fill="#0A0B09"></path>
                <path d="M1151.47487,591.372555 L1151.47487,616 L1146,616 L1146,591.065818 C1146,582.353306 1150.15885,578 1158.48224,578 C1160.18566,578 1161.68398,578.200559 1163,578.601676 L1163,584.04036 C1161.68398,583.586153 1160.18566,583.367898 1158.48224,583.367898 C1155.8502,583.367898 1154.02714,584.022664 1153.00737,585.332195 C1151.9876,586.635827 1151.47487,588.647314 1151.47487,591.372555" id="Fill-334" fill="#0A0B09"></path>
                <path d="M1168.03745,570.204777 C1167.34582,569.50499 1167,568.665246 1167,567.66805 C1167,566.665022 1167.34582,565.807783 1168.03745,565.090501 C1168.72908,564.367388 1169.57131,564 1170.5753,564 C1171.52351,564 1172.32669,564.367388 1173.00159,565.090501 C1173.67092,565.807783 1174,566.665022 1174,567.66805 C1174,568.665246 1173.67092,569.50499 1173.00159,570.204777 C1172.32669,570.898733 1171.52351,571.248626 1170.5753,571.248626 C1169.57131,571.248626 1168.72908,570.898733 1168.03745,570.204777 L1168.03745,570.204777 Z M1167.85339,616 L1173.21355,616 L1173.21355,579.173713 L1167.85339,579.173713 L1167.85339,616 Z" id="Fill-335" fill="#0A0B09"></path>
                <path d="M1179,583.944781 L1179,579.561211 L1185.35746,578.667078 L1186.41507,569 L1191.02954,569 L1191.02954,578.667078 L1205.63516,578.667078 L1205.63516,583.944781 L1191.02954,583.944781 L1191.02954,602.837678 C1191.02954,605.711674 1191.6322,607.743792 1192.80798,608.939839 C1193.99557,610.124274 1195.72674,610.728104 1197.99557,610.728104 C1201.72969,610.728104 1204.72526,610.222977 1207,609.230142 L1207,614.51365 C1204.57755,615.506485 1201.5997,616 1198.07238,616 C1189.5997,616 1185.35746,611.610624 1185.35746,602.837678 L1185.35746,583.944781 L1179,583.944781" id="Fill-336" fill="#0A0B09"></path>
                <path d="M1214.72889,579 L1222.46199,607.386997 C1222.92905,609.033384 1223.49662,610.129023 1224.1647,610.673912 C1224.83277,611.224661 1225.82601,611.500036 1227.16216,611.500036 C1228.28547,611.500036 1229.19003,611.207084 1229.85811,610.632899 C1230.51436,610.064573 1231.06419,608.980653 1231.47213,607.386997 L1238.30068,579 L1244,579 L1234.69426,615.964616 C1233.38767,621.185011 1231.37162,625.198446 1228.6402,627.993203 C1225.90878,630.811396 1222.16047,632.135537 1217.40118,631.989061 L1216.18328,626.956155 C1218.14611,627.055758 1219.85473,626.850692 1221.30321,626.358534 C1222.76351,625.860516 1223.97551,625.028534 1224.95101,623.880164 C1225.93834,622.731795 1226.72466,621.524835 1227.32179,620.271002 C1227.92483,619.028888 1228.49831,617.44695 1229.05997,615.548625 C1228.1022,616.093514 1226.84882,616.368889 1225.29392,616.368889 C1222.78716,616.368889 1220.9603,615.671664 1219.80743,614.271356 C1218.65456,612.871048 1217.67314,610.644617 1216.875,607.586204 L1209,579 L1214.72889,579" id="Fill-337" fill="#0A0B09"></path>
                <path d="M719,673.433824 L719,669.025303 L725.318399,668.126081 L725.318399,662.596453 C725.318399,654.859645 729.53458,651 737.955198,651 C740.715094,651 743.398652,651.39122 746,652.191176 L746,657.504758 C743.398652,656.704801 740.791431,656.307742 738.178338,656.307742 C733.363201,656.307742 730.955633,658.281358 730.955633,662.216912 L730.955633,668.126081 L745.177903,668.126081 L745.177903,673.433824 L730.955633,673.433824 L730.955633,705 L725.318399,705 L725.318399,673.433824 L719,673.433824" id="Fill-338" fill="#D8272C"></path>
                <path d="M764.576443,706 C758.702067,706 754.468282,704.681479 751.880969,702.038655 C749.293656,699.39583 748,695.527013 748,690.437985 L748,683.550449 C748,673.187338 753.527441,668 764.576443,668 C770.403778,668 774.59052,669.318521 777.154312,671.961345 C779.712224,674.60417 781,678.472987 781,683.550449 L781,690.437985 C781,700.812662 775.519601,706 764.576443,706 M775.343193,690.437985 L775.343193,683.550449 C775.343193,679.999696 774.57876,677.391569 773.044013,675.737635 C771.509266,674.083701 768.692623,673.256734 764.576443,673.256734 C760.407341,673.256734 757.543656,674.083701 755.991269,675.737635 C754.433001,677.391569 753.656807,679.999696 753.656807,683.550449 L753.656807,690.437985 C753.656807,694.000304 754.438881,696.608431 756.02067,698.262365 C757.608339,699.910516 760.454383,700.737483 764.576443,700.737483 C768.692623,700.737483 771.509266,699.910516 773.044013,698.262365 C774.57876,696.608431 775.343193,694.000304 775.343193,690.437985" id="Fill-339" fill="#D8272C"></path>
                <path d="M793.475059,681.372555 L793.475059,706 L788,706 L788,681.065818 C788,672.353306 792.160362,668 800.475393,668 C802.171409,668 803.685303,668.206458 805,668.601676 L805,674.04036 C803.685303,673.586153 802.171409,673.367898 800.475393,673.367898 C797.845999,673.367898 796.019083,674.022664 795.000335,675.332195 C793.981587,676.635827 793.475059,678.659112 793.475059,681.372555" id="Fill-340" fill="#D8272C"></path>
                <path d="M831.727918,669 L839.465631,697.386997 C839.926702,699.033384 840.494173,700.129023 841.162135,700.673912 C841.824185,701.224661 842.823172,701.500036 844.165006,701.500036 C845.288127,701.500036 846.186624,701.207084 846.854585,700.632899 C847.516636,700.064573 848.060463,698.980653 848.468333,697.386997 L855.295727,669 L861,669 L851.695828,705.964616 C850.38355,711.185011 848.367843,715.198446 845.636886,717.993203 C842.905928,720.811396 839.15825,722.135537 834.399764,721.989061 L833.187975,716.956155 C835.14457,717.055758 836.852896,716.850692 838.301132,716.352675 C839.761189,715.860516 840.978889,715.028534 841.954231,713.880164 C842.935484,712.731795 843.72758,711.524835 844.318696,710.28272 C844.921635,709.028888 845.500929,707.44695 846.044756,705.548625 C845.09897,706.099374 843.845803,706.368889 842.285256,706.368889 C839.790745,706.368889 837.952373,705.671664 836.805607,704.271356 C835.658841,702.871048 834.671677,700.644617 833.87367,697.586204 L826,669 L831.727918,669" id="Fill-341" fill="#D8272C"></path>
                <path d="M879.576471,706 C873.7,706 869.470588,704.681479 866.882353,702.038655 C864.294118,699.39583 863,695.527013 863,690.437985 L863,683.550449 C863,673.187338 868.529412,668 879.576471,668 C885.4,668 889.594118,669.318521 892.152941,671.961345 C894.723529,674.60417 896,678.472987 896,683.550449 L896,690.437985 C896,700.812662 890.529412,706 879.576471,706 M890.352941,690.437985 L890.352941,683.550449 C890.352941,679.999696 889.588235,677.391569 888.052941,675.737635 C886.517647,674.083701 883.7,673.256734 879.576471,673.256734 C875.411765,673.256734 872.547059,674.083701 870.982353,675.737635 C869.435294,677.391569 868.658824,679.999696 868.658824,683.550449 L868.658824,690.437985 C868.658824,694.000304 869.441176,696.608431 871.023529,698.262365 C872.611765,699.910516 875.458824,700.737483 879.576471,700.737483 C883.7,700.737483 886.517647,699.910516 888.052941,698.262365 C889.588235,696.608431 890.352941,694.000304 890.352941,690.437985" id="Fill-342" fill="#D8272C"></path>
                <path d="M907.57675,669 L907.57675,692.8724 C907.57675,695.84539 908.296331,698.051537 909.735492,699.484943 C911.168851,700.924247 913.768626,701.643899 917.540621,701.643899 C921.306814,701.643899 923.894983,700.936045 925.305129,699.526234 C926.709472,698.116423 927.42325,695.898479 927.42325,692.8724 L927.42325,669 L933,669 L933,692.8724 C933,697.455759 931.781355,700.95964 929.355672,703.378143 C926.929989,705.796647 922.989704,707 917.540621,707 C907.176338,707 902,702.292766 902,692.8724 L902,669 L907.57675,669" id="Fill-343" fill="#D8272C"></path>
                <path d="M945.474866,681.372555 L945.474866,706 L940,706 L940,681.065818 C940,672.353306 944.158847,668 952.470845,668 C954.17996,668 955.683981,668.206458 957,668.601676 L957,674.04036 C955.683981,673.586153 954.17996,673.367898 952.470845,673.367898 C949.850201,673.367898 948.027145,674.022664 947.007373,675.332195 C945.981903,676.635827 945.474866,678.659112 945.474866,681.372555" id="Fill-344" fill="#D8272C"></path>
                <path d="M981,690.404223 L981,653 L986.647059,653 L986.647059,673.164944 C988.605882,669.52826 992.523529,667.704091 998.411765,667.704091 C1008.80588,667.704091 1014,672.960963 1014,683.463053 L1014,690.404223 C1014,695.585331 1012.67059,699.472619 1010.01176,702.083572 C1007.34706,704.700352 1003.18235,706 997.505882,706 C986.5,706 981,700.801408 981,690.404223 M1008.28235,690.328458 L1008.28235,683.387288 C1008.28235,679.756433 1007.51176,677.11634 1005.98235,675.467011 C1004.44706,673.829338 1001.61765,673.007587 997.505882,673.007587 C993.388235,673.007587 990.541176,673.840994 988.988235,675.507807 C987.435294,677.180449 986.647059,679.797229 986.647059,683.387288 L986.647059,690.328458 C986.647059,693.918518 987.435294,696.535298 988.988235,698.202111 C990.541176,699.874753 993.388235,700.708159 997.505882,700.708159 C1001.67647,700.708159 1004.51176,699.874753 1006.01765,698.202111 C1007.52353,696.535298 1008.28235,693.918518 1008.28235,690.328458" id="Fill-345" fill="#D8272C"></path>
                <path d="M1025.57199,669 L1025.57199,692.8724 C1025.57199,695.84539 1026.29171,698.051537 1027.73114,699.484943 C1029.16476,700.924247 1031.77083,701.643899 1035.53773,701.643899 C1039.30462,701.643899 1041.89328,700.936045 1043.30369,699.526234 C1044.7199,698.116423 1045.42221,695.898479 1045.42221,692.8724 L1045.42221,669 L1051,669 L1051,692.8724 C1051,697.455759 1049.78113,700.95964 1047.35499,703.378143 C1044.92885,705.796647 1040.98783,707 1035.53773,707 C1025.17731,707 1020,702.292766 1020,692.8724 L1020,669 L1025.57199,669" id="Fill-346" fill="#D8272C"></path>
                <path d="M1058,703.843274 L1058,698.656726 C1062.82018,700.090688 1067.27361,700.813451 1071.35446,700.813451 C1074.23609,700.813451 1076.30854,700.501217 1077.58344,699.882532 C1078.84088,699.263847 1079.47542,698.165247 1079.47542,696.586732 C1079.47542,695.395618 1079.12031,694.424224 1078.39845,693.660986 C1077.67076,692.891966 1076.41915,692.088253 1074.63777,691.244066 L1065.52717,686.959525 C1063.14036,685.826233 1061.39392,684.577298 1060.28202,683.218503 C1059.15265,681.86549 1058.59379,679.899574 1058.59379,677.332319 C1058.59379,674.12325 1059.66494,671.764151 1061.80724,670.255021 C1063.94373,668.757456 1067.27361,668 1071.79107,668 C1075.82536,668 1079.67335,668.74011 1083.35252,670.220329 L1083.35252,675.476263 C1079.71992,673.949787 1075.82536,673.180767 1071.64554,673.180767 C1068.90944,673.180767 1066.97089,673.504565 1065.82988,674.140596 C1064.68887,674.788192 1064.11255,675.8521 1064.11255,677.332319 C1064.11255,679.384967 1065.43984,680.998174 1068.08862,682.171942 L1077.56598,686.468046 C1080.08668,687.65916 1081.96119,688.965916 1083.17206,690.37675 C1084.38292,691.793366 1085,693.805539 1085,696.442179 C1085,699.749544 1083.85317,702.166464 1081.57115,703.698722 C1079.27167,705.225198 1075.72639,706 1070.90621,706 C1066.62743,706 1062.32536,705.277237 1058,703.843274" id="Fill-347" fill="#D8272C"></path>
                <path d="M1093.03187,659.204777 C1092.34024,658.50499 1092,657.665246 1092,656.66805 C1092,655.665022 1092.34024,654.807783 1093.03187,654.090501 C1093.72351,653.367388 1094.56574,653 1095.5753,653 C1096.51793,653 1097.32669,653.367388 1098.00159,654.090501 C1098.66534,654.807783 1099,655.665022 1099,656.66805 C1099,657.665246 1098.66534,658.50499 1098.00159,659.204777 C1097.32669,659.898733 1096.51793,660.248626 1095.5753,660.248626 C1094.56574,660.248626 1093.72351,659.898733 1093.03187,659.204777 L1093.03187,659.204777 Z M1092.84781,705 L1098.21355,705 L1098.21355,668.173713 L1092.84781,668.173713 L1092.84781,705 Z" id="Fill-348" fill="#D8272C"></path>
                <path d="M1111.57675,682.129112 L1111.57675,706 L1106,706 L1106,682.129112 C1106,672.717567 1111.18214,668 1121.54062,668 C1126.9839,668 1130.92999,669.214773 1133.35567,671.632526 C1135.78716,674.050279 1137,677.541279 1137,682.129112 L1137,706 L1131.34781,706 L1131.34781,682.129112 C1131.34781,679.10987 1130.65724,676.89851 1129.27031,675.477343 C1127.87757,674.06797 1125.30681,673.366232 1121.54062,673.366232 C1117.76863,673.366232 1115.16885,674.091558 1113.72969,675.524519 C1112.29633,676.963377 1111.57675,679.162942 1111.57675,682.129112" id="Fill-349" fill="#D8272C"></path>
                <path d="M1175,682.81601 C1175,685.389438 1174.80218,687.488662 1174.40653,689.113681 L1149.58559,689.113681 L1149.58559,691.340131 C1149.58559,694.700046 1150.49906,697.099985 1152.30856,698.56308 C1154.12387,700.01461 1157.0854,700.743266 1161.2164,700.743266 C1166.03397,700.743266 1170.20571,700.008827 1173.73161,698.528382 L1173.73161,703.785116 C1170.20571,705.265561 1166.03397,706 1161.2164,706 C1155.35154,706 1151.01689,704.797139 1148.21246,702.379851 C1145.3964,699.950997 1144,696.007 1144,690.52473 L1144,683.637194 C1144,673.216253 1149.23649,668 1159.7211,668 C1164.64921,668 1168.41948,669.254908 1171.05518,671.747375 C1173.68506,674.234059 1175,677.929387 1175,682.81601 M1149.58559,682.000609 L1149.58559,684.446812 L1169.71115,684.446812 L1169.71115,682.000609 C1169.71115,675.98052 1166.35398,672.973368 1159.64546,672.973368 C1152.93694,672.973368 1149.58559,675.98052 1149.58559,682.000609" id="Fill-350" fill="#D8272C"></path>
                <path d="M1181,703.843274 L1181,698.656726 C1185.82018,700.090688 1190.27361,700.813451 1194.34282,700.813451 C1197.23609,700.813451 1199.30854,700.501217 1200.5718,699.882532 C1201.8467,699.263847 1202.47542,698.165247 1202.47542,696.586732 C1202.47542,695.395618 1202.12031,694.424224 1201.39845,693.660986 C1200.67076,692.891966 1199.41915,692.088253 1197.63777,691.244066 L1188.52717,686.959525 C1186.14036,685.826233 1184.39392,684.577298 1183.28202,683.218503 C1182.15265,681.86549 1181.59961,679.899574 1181.59961,677.332319 C1181.59961,674.12325 1182.66494,671.764151 1184.80724,670.255021 C1186.94955,668.757456 1190.27361,668 1194.79107,668 C1198.82536,668 1202.67917,668.74011 1206.35252,670.220329 L1206.35252,675.476263 C1202.71992,673.949787 1198.82536,673.180767 1194.64554,673.180767 C1191.91527,673.180767 1189.97671,673.504565 1188.82988,674.140596 C1187.68887,674.788192 1187.11255,675.8521 1187.11255,677.332319 C1187.11255,679.384967 1188.43984,680.998174 1191.08862,682.171942 L1200.55433,686.468046 C1203.08668,687.65916 1204.96119,688.965916 1206.17206,690.37675 C1207.38875,691.793366 1208,693.805539 1208,696.442179 C1208,699.749544 1206.85317,702.166464 1204.57115,703.698722 C1202.27167,705.225198 1198.72639,706 1193.89457,706 C1189.62743,706 1185.33118,705.277237 1181,703.843274" id="Fill-351" fill="#D8272C"></path>
                <path d="M1214,703.843274 L1214,698.656726 C1218.82018,700.090688 1223.27361,700.813451 1227.35446,700.813451 C1230.23609,700.813451 1232.30854,700.501217 1233.58344,699.882532 C1234.84088,699.263847 1235.47542,698.165247 1235.47542,696.586732 C1235.47542,695.395618 1235.12031,694.424224 1234.39263,693.660986 C1233.67076,692.891966 1232.41915,692.088253 1230.63777,691.244066 L1221.53881,686.959525 C1219.15201,685.826233 1217.39392,684.577298 1216.2762,683.218503 C1215.15265,681.86549 1214.59379,679.899574 1214.59379,677.332319 C1214.59379,674.12325 1215.66494,671.764151 1217.80724,670.255021 C1219.94373,668.757456 1223.27361,668 1227.80272,668 C1231.82536,668 1235.67335,668.74011 1239.35252,670.220329 L1239.35252,675.476263 C1235.73157,673.949787 1231.82536,673.180767 1227.64554,673.180767 C1224.90944,673.180767 1222.97089,673.504565 1221.82988,674.140596 C1220.68887,674.788192 1220.11837,675.8521 1220.11837,677.332319 C1220.11837,679.384967 1221.44567,680.998174 1224.08862,682.171942 L1233.56016,686.468046 C1236.08668,687.65916 1237.96119,688.965916 1239.17788,690.37675 C1240.38292,691.793366 1241,693.805539 1241,696.442179 C1241,699.749544 1239.85317,702.166464 1237.57115,703.698722 C1235.28331,705.225198 1231.72639,706 1226.90621,706 C1222.62743,706 1218.32536,705.277237 1214,703.843274" id="Fill-352" fill="#D8272C"></path>
                <path d="M1252,239.6899 C1194.35082,202.095608 1092.60701,276.034165 1058.70019,297.839556 C1001.97877,334.353217 911.035431,361.071099 864,303.739219 C941.027009,309.668089 941.86724,215.810866 940.385166,163.73027 C938.552996,99.4589836 947.626323,41.7591046 999.563102,0 C995.647859,26.9865804 990.314726,52.7640218 1015.49832,82.3850064 C1036.81334,107.443974 1070.39924,121.05993 1101.56948,128.758699 C1163.7174,144.091984 1231.07008,170.985104 1252,239.6899" id="Fill-353" fill="#D8272C"></path>
                <path d="M175,513.134103 C175,563.434646 139.000033,595 83.8672176,595 C56.4559566,595 32.3408384,586.454329 10.8837108,571.986146 L27.0658392,544.699457 C43.5758255,556.870918 60.7415276,563.761084 82.2103643,563.761084 C115.558195,563.761084 137.354889,544.378849 137.354889,514.119245 L137.354889,492.090534 C125.464187,511.163819 105.652203,521.685603 79.2420796,521.685603 C31.6909772,521.685603 0,487.491261 0,437.184888 C0,387.869488 31.3572647,354.333849 77.9247934,354.007412 C104.990633,353.675145 125.130474,364.529196 137.354889,383.602481 L137.354889,355.324821 L175,355.324821 L175,513.134103 Z M137.354889,438.170031 C137.354889,406.616335 116.553478,384.581794 86.8296477,384.581794 C56.7896691,384.581794 35.9882573,406.942773 35.6545448,438.170031 C35.9882573,469.735385 56.4559566,492.090534 86.8296477,492.090534 C116.553478,492.090534 137.354889,469.735385 137.354889,438.170031 L137.354889,438.170031 Z" id="Fill-354" fill="#0A0B09"></path>
                <path d="M243.691414,390.121076 C255.48814,366.477025 276.466556,354 304,354 L304,390.121076 C268.923624,388.153164 246.631879,408.833703 243.691414,438.724999 L243.691414,530 L206,530 L206,355.31 L243.691414,355.31 L243.691414,390.121076" id="Fill-355" fill="#0A0B09"></path>
                <path d="M433.725146,508.973354 C421.19883,524.439186 401.070175,532 375.666667,532 C337.748538,532 314,508.652486 314,477.709154 C314,445.797385 338.076023,425.396021 380.28655,425.069319 L433.397661,425.069319 L433.397661,419.807086 C433.397661,397.760545 419.210526,384.599128 391.508772,384.599128 C374.684211,384.599128 357.204678,390.526433 339.719298,402.369375 L324.222222,376.046541 C348.631579,361.55498 366.444444,354 399.754386,354 C444.947368,354 470.339181,377.026646 470.666667,415.530792 L471,530.360657 L433.725146,530.360657 L433.725146,508.973354 Z M433.397661,468.829865 L433.397661,452.710629 L385.900585,452.710629 C361.163743,452.710629 349.625731,459.291338 349.625731,476.069811 C349.625731,491.868179 362.48538,502.071777 383.596491,502.071777 C410.643275,502.071777 431.421053,487.912753 433.397661,468.829865 L433.397661,468.829865 Z" id="Fill-356" fill="#0A0B09"></path>
                <path d="M676,530.359221 L638.205825,530.359221 L638.205825,500.393117 C625.72233,520.806504 604.693204,532 576.778641,532 C526.512621,532 493,495.459103 493,442.101685 C493,389.409922 526.83301,353.511322 576.114563,353.511322 C604.372816,353.511322 625.401942,365.037645 638.205825,385.456872 L638.205825,286 L676,286 L676,530.359221 Z M638.205825,443.409637 C638.205825,409.496321 616.198058,385.789699 584.666019,385.789699 C553.12233,385.789699 531.102913,409.81747 530.782524,443.409637 C531.102913,476.680655 552.790291,500.393117 584.666019,500.393117 C616.198058,500.393117 638.205825,476.680655 638.205825,443.409637 L638.205825,443.409637 Z" id="Fill-357" fill="#0A0B09"></path>
                <path d="M747,305.023656 C747,318.180031 737.475787,327.714904 725.005822,327.714904 C712.530034,327.714904 703,318.180031 703,305.023656 C703,291.546536 712.530034,282 725.005822,282 C737.475787,282 747,291.546536 747,305.023656 L747,305.023656 Z M706.295052,530 L743.722413,530 L743.722413,355.013215 L706.295052,355.013215 L706.295052,530 Z" id="Fill-358" fill="#0A0B09"></path>
                <path d="M886.730994,508.973354 C874.192982,524.439186 854.076023,532 828.672515,532 C790.748538,532 767,508.652486 767,477.709154 C767,445.797385 791.081871,425.396021 833.292398,425.069319 L886.403509,425.069319 L886.403509,419.807086 C886.403509,397.760545 872.216374,384.599128 844.508772,384.599128 C827.690058,384.599128 810.204678,390.526433 792.725146,402.369375 L777.22807,376.046541 C801.637427,361.55498 819.450292,354 852.760234,354 C897.947368,354 923.339181,377.026646 923.672515,415.530792 L924,530.360657 L886.730994,530.360657 L886.730994,508.973354 Z M886.403509,468.829865 L886.403509,452.710629 L838.906433,452.710629 C814.163743,452.710629 802.625731,459.291338 802.625731,476.069811 C802.625731,491.868179 815.491228,502.071777 836.602339,502.071777 C863.643275,502.071777 884.426901,487.912753 886.403509,468.829865 L886.403509,468.829865 Z" id="Fill-359" fill="#0A0B09"></path>
                <path d="M1249,519.18573 C1235.16242,527.411815 1220.65283,532 1205.82185,532 C1179.46734,532 1156.71831,516.888722 1156.71831,481.040248 L1156.71831,390.290964 L1132,390.290964 L1132,362.009788 L1156.71831,362.009788 L1156.71831,314 L1194.29248,314 L1194.29248,362.009788 L1246.03731,362.009788 L1246.03731,390.290964 L1194.29248,390.290964 L1194.29248,474.137566 C1194.29248,492.216297 1201.20542,497.813067 1213.07372,497.813067 C1220.98592,497.813067 1229.21951,495.183751 1239.43992,490.245768 L1249,519.18573" id="Fill-360" fill="#0A0B09"></path>
                <path d="M1115.75677,391.311232 C1114.80292,388.848474 1113.75544,386.461404 1112.53826,384.231532 C1103.3392,367.277512 1086.93068,356.774404 1064.84005,354.509599 C1064.63524,354.480488 1064.43627,354.422267 1064.24316,354.398978 C1063.19569,354.253425 1062.20088,354.253425 1061.17096,354.160271 C1030.95214,351.697514 1013.39667,378.403587 953,380.278311 L953,530 L990.954927,530 L990.954927,437.067289 C993.594099,409.82558 1011.75231,389.791658 1040.78906,389.465619 C1067.20419,389.465619 1083.03922,405.552142 1083.03922,431.827379 L1083.03922,530 L1121,530 L1121,421.318449 C1121,410.058465 1119.15668,400.026948 1115.75677,391.311232" id="Fill-361" fill="#0A0B09"></path>
            </g>
        </g>
    </g>
</svg>