<?xml version="1.0" encoding="UTF-8"?>
<svg width="694px" height="124px" viewBox="0 0 694 124" version="1.1" xmlns="http://www.w3.org/2000/svg" xmlns:xlink="http://www.w3.org/1999/xlink">
    <!-- Generator: Sketch 48.2 (47327) - http://www.bohemiancoding.com/sketch -->
    <title>raiola.ILUSTRATOR</title>
    <desc>Created with Sketch.</desc>
    <defs>
        <polygon id="path-1" points="0.06 0.298 88.82 0.298 88.82 90.02 0.06 90.02"></polygon>
        <polygon id="path-3" points="0.06 0.995 107.07 0.995 107.07 90 0.06 90"></polygon>
    </defs>
    <g id="Page-1" stroke="none" stroke-width="1" fill="none" fill-rule="evenodd">
        <g id="raiola.ILUSTRATOR">
            <g id="Group-6">
                <mask id="mask-2" fill="white">
                    <use xlink:href="#path-1"></use>
                </mask>
                <g id="Clip-2"></g>
                <polyline id="Fill-1" fill="#4892C2" mask="url(#mask-2)" points="88.82 38.334 53.313 18.665 18.033 38.586 53.329 57.459 88.82 38.334"></polyline>
                <polyline id="Fill-3" fill="#929999" mask="url(#mask-2)" points="0.001 84.381 12.732 90.02 12.747 41.529 0.001 48.786 0.001 84.381"></polyline>
                <polyline id="Fill-4" fill="#4892C2" mask="url(#mask-2)" points="18.088 55.966 18.088 44.383 52.808 62.924 52.808 74.521 18.088 55.966"></polyline>
                <polyline id="Fill-5" fill="#929999" mask="url(#mask-2)" points="0.001 28.993 50.729 0.298 50.729 14.318 0.001 43.051 0.001 28.993"></polyline>
            </g>
            <polyline id="Fill-7" fill="#929999" points="107.07 28.507 56.123 0.389 56.123 14.394 107.07 42.512 107.07 28.507"></polyline>
            <polyline id="Fill-8" fill="#4892C2" points="18.033 70.954 18.033 59.372 52.808 77.957 52.808 89.438 18.033 70.954"></polyline>
            <polyline id="Fill-9" fill="#4892C2" points="88.935 70.678 88.935 59.06 53.833 77.906 53.833 89.483 88.935 70.678"></polyline>
            <g id="Group-13" transform="translate(0.000000, 34.000000)">
                <mask id="mask-4" fill="white">
                    <use xlink:href="#path-3"></use>
                </mask>
                <g id="Clip-11"></g>
                <polyline id="Fill-10" fill="#929999" mask="url(#mask-4)" points="94.214 48.669 107.07 41.732 107.07 7.512 94.193 0.995 94.214 48.669"></polyline>
                <polyline id="Fill-12" fill="#929999" mask="url(#mask-4)" points="0.001 62.889 50.73 90 50.73 75.981 0 48.882 0.001 62.889"></polyline>
            </g>
            <polyline id="Fill-14" fill="#929999" points="107.07 96.265 56.123 123.618 56.123 109.597 107.07 82.244 107.07 96.265"></polyline>
            <polyline id="Fill-15" fill="#4892C2" points="88.894 55.691 88.894 44.072 53.833 62.896 53.833 74.515 88.894 55.691"></polyline>
            <polyline id="Fill-16" fill="#4892C2" points="18.033 85.788 18.033 74.205 52.808 92.874 52.808 104.39 18.033 85.788"></polyline>
            <polyline id="Fill-17" fill="#4892C2" points="88.938 85.668 88.938 74.049 53.833 92.874 53.833 104.39 88.938 85.668"></polyline>
            <polyline id="Fill-18" fill="#4892C2" points="413.974 28.9 413.974 95.328 398.834 95.328 389.848 65.129 389.848 95.328 375.406 95.328 375.406 28.9 389.848 28.9 399.532 58.811 399.532 28.9 413.974 28.9"></polyline>
            <path d="M441.341,60.206 L441.341,56.226 C441.341,53.409 441.191,51.59 440.89,50.769 C440.588,49.948 439.973,49.538 439.043,49.538 C437.894,49.538 437.183,49.887 436.91,50.584 C436.636,51.282 436.499,53.163 436.499,56.226 L436.499,60.206 L441.341,60.206 Z M457.958,69.069 L436.499,69.069 L436.499,80.844 C436.499,83.306 436.677,84.892 437.033,85.604 C437.388,86.315 438.073,86.671 439.085,86.671 C440.342,86.671 441.183,86.2 441.608,85.255 C442.032,84.311 442.243,82.485 442.243,79.778 L442.243,72.597 L457.958,72.597 L457.958,76.619 C457.958,79.982 457.746,82.568 457.322,84.374 C456.898,86.179 455.907,88.107 454.348,90.157 C452.788,92.21 450.812,93.749 448.419,94.774 C446.025,95.8 443.023,96.313 439.413,96.313 C435.911,96.313 432.821,95.807 430.14,94.794 C427.459,93.783 425.373,92.395 423.883,90.631 C422.392,88.865 421.36,86.924 420.785,84.804 C420.211,82.683 419.923,79.599 419.923,75.551 L419.923,59.673 C419.923,54.913 420.566,51.159 421.852,48.41 C423.137,45.66 425.243,43.554 428.171,42.091 C431.097,40.629 434.462,39.896 438.264,39.896 C442.914,39.896 446.75,40.779 449.773,42.542 C452.795,44.307 454.915,46.645 456.133,49.559 C457.35,52.471 457.958,56.569 457.958,61.847 L457.958,69.069 Z" id="Fill-19" fill="#4892C2"></path>
            <path d="M480.854,33.619 L480.854,42.193 L485.326,42.193 L485.326,50.81 L480.854,50.81 L480.854,79.942 C480.854,83.525 481.039,85.523 481.408,85.932 C481.777,86.343 483.315,86.547 486.023,86.547 L486.023,95.328 L479.336,95.328 C475.561,95.328 472.867,95.171 471.253,94.857 C469.639,94.541 468.217,93.817 466.986,92.681 C465.755,91.548 464.989,90.248 464.688,88.784 C464.387,87.32 464.237,83.881 464.237,78.465 L464.237,50.81 L460.667,50.81 L460.667,42.193 L464.237,42.193 L464.237,33.619 L480.854,33.619" id="Fill-20" fill="#4892C2"></path>
            <path d="M542.563,40.88 L535.948,95.328 L517.955,95.328 C516.976,88.677 515.831,79.91 514.519,69.028 C514.07,73.815 513.449,78.643 512.657,83.511 L510.836,95.328 L492.804,95.328 L485.777,40.88 L500.064,40.88 C500.173,42.303 501.382,52.697 503.687,72.065 C503.869,70.071 505.11,59.677 507.411,40.88 L521.135,40.88 L524.489,72.065 C525.02,62.958 526.288,52.564 528.291,40.88 L542.563,40.88" id="Fill-21" fill="#4892C2"></path>
            <path d="M566.156,55.898 C566.156,53.108 566.006,51.351 565.705,50.626 C565.403,49.901 564.761,49.538 563.776,49.538 C562.791,49.538 562.135,49.901 561.807,50.626 C561.478,51.351 561.314,53.108 561.314,55.898 L561.314,80.474 C561.314,83.046 561.478,84.723 561.807,85.502 C562.135,86.281 562.777,86.671 563.735,86.671 C564.72,86.671 565.369,86.315 565.684,85.604 C565.998,84.892 566.156,83.361 566.156,81.008 L566.156,55.898 Z M582.733,60.001 L582.733,73.336 C582.733,78.233 582.486,81.823 581.994,84.106 C581.502,86.39 580.448,88.524 578.834,90.506 C577.221,92.491 575.148,93.953 572.619,94.898 C570.088,95.841 567.182,96.313 563.9,96.313 C560.233,96.313 557.129,95.909 554.585,95.102 C552.042,94.296 550.065,93.078 548.656,91.451 C547.247,89.823 546.243,87.854 545.641,85.543 C545.039,83.231 544.738,79.763 544.738,75.141 L544.738,61.191 C544.738,56.13 545.285,52.178 546.379,49.333 C547.474,46.489 549.443,44.204 552.288,42.481 C555.132,40.758 558.77,39.896 563.202,39.896 C566.922,39.896 570.115,40.45 572.783,41.558 C575.449,42.666 577.507,44.109 578.958,45.887 C580.408,47.665 581.399,49.497 581.933,51.385 C582.466,53.272 582.733,56.144 582.733,60.001 Z" id="Fill-22" fill="#4892C2"></path>
            <path d="M604.765,40.88 L604.109,48.04 C606.516,42.913 610.004,40.198 614.572,39.896 L614.572,59.057 C611.535,59.057 609.306,59.467 607.883,60.288 C606.461,61.108 605.586,62.252 605.257,63.715 C604.929,65.177 604.765,68.549 604.765,73.828 L604.765,95.328 L588.189,95.328 L588.189,40.88 L604.765,40.88" id="Fill-23" fill="#4892C2"></path>
            <polyline id="Fill-24" fill="#4892C2" points="653.962 40.88 647.231 62.566 655.973 95.328 640.031 95.328 634.861 71.597 634.84 95.328 618.264 95.328 618.264 28.9 634.84 28.9 634.861 56.786 640.031 40.88 653.962 40.88"></polyline>
            <path d="M692.283,58.278 L677.593,58.278 L677.593,55.324 C677.593,52.807 677.45,51.214 677.163,50.543 C676.876,49.874 676.158,49.538 675.009,49.538 C674.079,49.538 673.381,49.845 672.917,50.462 C672.451,51.076 672.219,52 672.219,53.231 C672.219,54.899 672.336,56.124 672.568,56.904 C672.8,57.683 673.498,58.538 674.66,59.467 C675.822,60.398 678.21,61.752 681.821,63.53 C686.635,65.882 689.793,68.098 691.298,70.176 C692.801,72.255 693.554,75.279 693.554,79.245 C693.554,83.676 692.981,87.02 691.832,89.276 C690.683,91.533 688.761,93.27 686.067,94.487 C683.373,95.704 680.125,96.313 676.322,96.313 C672.109,96.313 668.506,95.656 665.511,94.343 C662.515,93.03 660.457,91.253 659.336,89.009 C658.214,86.767 657.654,83.374 657.654,78.833 L657.654,76.207 L672.341,76.207 L672.341,79.654 C672.341,82.581 672.526,84.483 672.896,85.358 C673.266,86.234 673.998,86.671 675.092,86.671 C676.267,86.671 677.088,86.377 677.554,85.788 C678.018,85.2 678.25,83.962 678.25,82.076 C678.25,79.477 677.95,77.848 677.348,77.192 C676.718,76.536 673.505,74.594 667.706,71.367 C662.836,68.632 659.868,66.149 658.802,63.919 C657.735,61.69 657.203,59.044 657.203,55.98 C657.203,51.631 657.776,48.424 658.925,46.358 C660.074,44.293 662.023,42.7 664.771,41.578 C667.522,40.457 670.715,39.896 674.352,39.896 C677.963,39.896 681.034,40.354 683.564,41.271 C686.093,42.188 688.036,43.398 689.391,44.902 C690.743,46.407 691.564,47.802 691.853,49.087 C692.139,50.373 692.283,52.384 692.283,55.118 L692.283,58.278" id="Fill-25" fill="#4892C2"></path>
            <path d="M150.972,40.758 L150.972,55.528 C152.914,55.528 154.275,55.261 155.055,54.729 C155.835,54.195 156.224,52.466 156.224,49.538 L156.224,45.887 C156.224,43.781 155.848,42.399 155.096,41.742 C154.343,41.086 152.968,40.758 150.972,40.758 Z M133.698,29.392 L145.925,29.392 C154.076,29.392 159.595,29.707 162.481,30.336 C165.367,30.965 167.719,32.573 169.538,35.157 C171.357,37.742 172.267,41.865 172.267,47.528 C172.267,52.698 171.624,56.172 170.338,57.95 C169.053,59.728 166.523,60.794 162.748,61.15 C166.167,61.998 168.465,63.133 169.641,64.555 C170.817,65.978 171.549,67.284 171.836,68.473 C172.124,69.663 172.267,72.94 172.267,78.301 L172.267,95.82 L156.224,95.82 L156.224,73.746 C156.224,70.19 155.943,67.988 155.383,67.14 C154.823,66.292 153.352,65.868 150.972,65.868 L150.972,95.82 L133.698,95.82 L133.698,29.392 Z" id="Fill-26" fill="#929999"></path>
            <path d="M198.526,69.929 C195.873,71.872 194.334,73.5 193.91,74.813 C193.486,76.126 193.274,78.013 193.274,80.474 C193.274,83.293 193.459,85.111 193.828,85.932 C194.198,86.752 194.929,87.164 196.023,87.164 C197.062,87.164 197.74,86.841 198.055,86.2 C198.369,85.556 198.526,83.866 198.526,81.131 L198.526,69.929 Z M193.274,62.463 L177.724,62.463 L177.724,58.811 C177.724,54.599 178.209,51.351 179.18,49.067 C180.151,46.783 182.1,44.765 185.027,43.014 C187.954,41.264 191.756,40.388 196.433,40.388 C202.041,40.388 206.267,41.38 209.112,43.363 C211.957,45.346 213.667,47.781 214.241,50.666 C214.815,53.552 215.102,59.495 215.102,68.494 L215.102,95.82 L198.977,95.82 L198.977,90.969 C197.965,92.914 196.66,94.374 195.059,95.347 C193.459,96.318 191.551,96.805 189.336,96.805 C186.435,96.805 183.775,95.99 181.355,94.364 C178.934,92.736 177.724,89.173 177.724,83.676 L177.724,79.203 C177.724,75.128 178.366,72.351 179.653,70.874 C180.937,69.397 184.124,67.673 189.212,65.704 C194.655,63.57 197.568,62.135 197.952,61.396 C198.335,60.658 198.526,59.153 198.526,56.883 C198.526,54.038 198.314,52.185 197.89,51.323 C197.466,50.462 196.761,50.03 195.777,50.03 C194.655,50.03 193.957,50.394 193.685,51.118 C193.411,51.843 193.274,53.723 193.274,56.759 L193.274,62.463 Z" id="Fill-27" fill="#929999"></path>
            <path d="M220.806,95.821 L237.874,95.821 L237.874,41.373 L220.806,41.373 L220.806,95.821 Z M220.806,38.05 L237.874,38.05 L237.874,29.392 L220.806,29.392 L220.806,38.05 Z" id="Fill-28" fill="#929999"></path>
            <path d="M264.749,56.39 C264.749,53.601 264.599,51.843 264.298,51.118 C263.996,50.394 263.354,50.03 262.369,50.03 C261.384,50.03 260.728,50.394 260.4,51.118 C260.072,51.843 259.907,53.601 259.907,56.39 L259.907,80.967 C259.907,83.538 260.072,85.215 260.4,85.994 C260.728,86.773 261.37,87.164 262.329,87.164 C263.313,87.164 263.962,86.807 264.277,86.096 C264.591,85.385 264.749,83.853 264.749,81.501 L264.749,56.39 Z M281.326,60.493 L281.326,73.829 C281.326,78.726 281.08,82.316 280.587,84.598 C280.095,86.883 279.041,89.016 277.428,90.999 C275.814,92.983 273.741,94.445 271.212,95.39 C268.681,96.333 265.775,96.805 262.493,96.805 C258.827,96.805 255.722,96.402 253.179,95.594 C250.635,94.789 248.659,93.57 247.25,91.944 C245.84,90.316 244.836,88.346 244.234,86.036 C243.632,83.723 243.331,80.256 243.331,75.634 L243.331,61.683 C243.331,56.622 243.879,52.671 244.973,49.826 C246.067,46.981 248.036,44.697 250.881,42.973 C253.726,41.25 257.364,40.388 261.795,40.388 C265.515,40.388 268.709,40.943 271.376,42.05 C274.042,43.158 276.1,44.601 277.551,46.379 C279.001,48.157 279.992,49.99 280.526,51.877 C281.059,53.765 281.326,56.637 281.326,60.493 Z" id="Fill-29" fill="#929999"></path>
            <polygon id="Fill-30" fill="#929999" points="286.783 95.82 303.852 95.82 303.852 29.392 286.783 29.392"></polygon>
            <path d="M329.864,69.929 C327.211,71.872 325.672,73.5 325.248,74.813 C324.824,76.126 324.613,78.013 324.613,80.474 C324.613,83.293 324.797,85.111 325.166,85.932 C325.536,86.752 326.267,87.164 327.361,87.164 C328.401,87.164 329.078,86.841 329.393,86.2 C329.707,85.556 329.864,83.866 329.864,81.131 L329.864,69.929 Z M324.613,62.463 L309.062,62.463 L309.062,58.811 C309.062,54.599 309.548,51.351 310.518,49.067 C311.489,46.783 313.438,44.765 316.365,43.014 C319.292,41.264 323.094,40.388 327.771,40.388 C333.379,40.388 337.605,41.38 340.45,43.363 C343.295,45.346 345.005,47.781 345.579,50.666 C346.154,53.552 346.44,59.495 346.44,68.494 L346.44,95.82 L330.315,95.82 L330.315,90.969 C329.303,92.914 327.998,94.374 326.397,95.347 C324.797,96.318 322.889,96.805 320.674,96.805 C317.773,96.805 315.114,95.99 312.693,94.364 C310.272,92.736 309.062,89.173 309.062,83.676 L309.062,79.203 C309.062,75.128 309.704,72.351 310.991,70.874 C312.275,69.397 315.462,67.673 320.55,65.704 C325.993,63.57 328.906,62.135 329.29,61.396 C329.673,60.658 329.864,59.153 329.864,56.883 C329.864,54.038 329.652,52.185 329.229,51.323 C328.804,50.462 328.1,50.03 327.115,50.03 C325.993,50.03 325.295,50.394 325.023,51.118 C324.749,51.843 324.613,53.723 324.613,56.759 L324.613,62.463 Z" id="Fill-31" fill="#929999"></path>
        </g>
    </g>
</svg>