<?xml version="1.0" encoding="UTF-8"?>
<svg width="485px" height="80px" viewBox="0 0 485 80" version="1.1" xmlns="http://www.w3.org/2000/svg" xmlns:xlink="http://www.w3.org/1999/xlink">
    <!-- Generator: Sketch 47.1 (45422) - http://www.bohemiancoding.com/sketch -->
    <title>VVLOGO_normal (1)</title>
    <desc>Created with Sketch.</desc>
    <defs></defs>
    <g id="Page-1" stroke="none" stroke-width="1" fill="none" fill-rule="evenodd">
        <g id="VVLOGO_normal-(1)" fill-rule="nonzero">
            <path d="M158.9,68.8 L166.9,68.8 L166.9,30.5 L152.7,33.1 L152.7,34.7 C157.6,34.9 158.9,36.2 158.9,41.9 L158.9,68.8 L158.9,68.8 Z M163,24.2 C165.8,24.2 168.2,21.9 168.2,19.1 C168.2,16.3 165.8,14.1 163.1,14.1 C160.3,14.1 158,16.4 158,19.1 C158,21.9 160.3,24.2 163,24.2 L163,24.2 Z" id="Shape" fill="#000000"></path>
            <path d="M201.7,64.2 C199.8,64.8 196.5,65.3 194,65.3 C186.7,65.3 181.2,58.8 181.2,46.9 C181.2,39.2 182.4,33.2 187.9,33.2 C192.9,33.2 193.7,38.2 193.7,41.5 L203.2,41.5 C203.2,35 197.3,30.5 188.4,30.5 C176.9,30.5 172.4,38.5 172.4,49.6 C172.4,61.7 179.1,69.7 190.3,69.7 C197,69.7 198.8,68.8 201.7,67.8 L201.7,64.2 L201.7,64.2 Z" id="Shape" fill="#000000"></path>
            <path d="M236.2,64 C234.8,64.6 232,65.4 228.6,65.4 C217.3,65.4 214,54 214,45.9 L236.9,45.9 C236.9,40.5 235.8,30.5 222,30.5 C211.2,30.5 205.1,36 205.1,48.8 C205.1,62.2 212.5,69.7 224.8,69.7 C230.3,69.7 234.6,68.1 236.1,67.5 L236.1,64 L236.2,64 Z M214,42.7 C214,39.6 215.7,33.3 221.7,33.3 C228.7,33.3 228.9,40.9 228.9,42.7 L214,42.7 L214,42.7 Z" id="Shape" fill="#000000"></path>
            <path d="M243.6,68.8 L251.6,68.8 L251.6,49.2 C251.6,43.5 256.2,36 261.5,36 C266.9,36 266.9,41.6 266.9,48 L266.9,68.8 L274.9,68.8 L274.9,41.9 C274.9,35.7 272.5,30.6 265.2,30.6 C257.2,30.6 253,38.1 251.8,40.9 L251.6,40.9 L251.6,30.6 L237.1,33.2 L237.1,34.8 C242.2,35 243.5,36.3 243.5,42 L243.5,68.8 L243.6,68.8 Z" id="Shape" fill="#000000"></path>
            <path d="M303.4,31.9 C302,31.6 298.5,30.5 294.4,30.5 C284.9,30.5 281,35.5 281,41.3 C281,52.4 298.6,52.9 298.6,60.8 C298.6,63.6 296.8,66.2 291.7,66.2 C287.2,66.2 283.4,63.6 281.1,62 L281.1,68.3 C282.9,68.8 286.5,69.7 291.4,69.7 C299.4,69.7 305.9,66.5 305.9,58.6 C305.9,46.3 288.3,46.1 288.3,38.5 C288.3,35 291.4,34.1 293.9,34.1 C298.4,34.1 302.3,37.2 303.5,38 L303.5,31.9 L303.4,31.9 Z" id="Shape" fill="#000000"></path>
            <path d="M340.5,68.8 L347.5,68.8 L367.1,14.7 L361.9,14.7 L346.5,58.8 L346.3,58.8 L330.5,14.7 L315,14.7 L315,16.5 C321.4,17.7 322.2,17.7 324.7,25 L340.5,68.8 L340.5,68.8 Z" id="Shape" fill="#000000"></path>
            <path d="M372.7,68.8 L380.7,68.8 L380.7,30.5 L366.5,33.1 L366.5,34.7 C371.4,34.9 372.7,36.2 372.7,41.9 L372.7,68.8 L372.7,68.8 Z M376.8,24.2 C379.6,24.2 382,21.9 382,19.1 C382,16.3 379.6,14.1 376.9,14.1 C374.1,14.1 371.8,16.4 371.8,19.1 C371.8,21.9 374,24.2 376.8,24.2 L376.8,24.2 Z" id="Shape" fill="#000000"></path>
            <path d="M403.4,68.8 L409.3,68.8 L423.7,31.4 L419.1,31.4 L408.2,59.7 L396.9,31.4 L383.5,31.4 L383.5,33 C389,33.5 389.9,34.8 391.9,40.2 L403.4,68.8 L403.4,68.8 Z" id="Shape" fill="#000000"></path>
            <path d="M454.7,64 C453.3,64.6 450.5,65.4 447.1,65.4 C435.8,65.4 432.5,54 432.5,45.9 L455.4,45.9 C455.4,40.5 454.3,30.5 440.5,30.5 C429.7,30.5 423.6,36 423.6,48.8 C423.6,62.2 431,69.7 443.3,69.7 C448.8,69.7 453.1,68.1 454.6,67.5 L454.6,64 L454.7,64 Z M432.5,42.7 C432.5,39.6 434.2,33.3 440.2,33.3 C447.2,33.3 447.4,40.9 447.4,42.7 L432.5,42.7 L432.5,42.7 Z" id="Shape" fill="#000000"></path>
            <path d="M482.3,31.9 C480.9,31.6 477.4,30.5 473.3,30.5 C463.8,30.5 459.9,35.5 459.9,41.3 C459.9,52.4 477.5,52.9 477.5,60.8 C477.5,63.6 475.7,66.2 470.6,66.2 C466.1,66.2 462.3,63.6 460,62 L460,68.3 C461.8,68.8 465.4,69.7 470.3,69.7 C478.3,69.7 484.8,66.5 484.8,58.6 C484.8,46.3 467.2,46.1 467.2,38.5 C467.2,35 470.3,34.1 472.8,34.1 C477.3,34.1 481.2,37.2 482.4,38 L482.4,31.9 L482.3,31.9 Z" id="Shape" fill="#000000"></path>
            <path d="M126.6,68.8 L133.6,68.8 L153.2,14.7 L148,14.7 L132.6,58.8 L132.4,58.8 L116.6,14.7 L101,14.7 L101,16.5 C107.4,17.7 108.2,17.7 110.7,25 L126.6,68.8 L126.6,68.8 Z" id="Shape" fill="#000000"></path>
            <polygon id="Shape" fill="#E30613" points="0.5 0.3 80.1 0.3 80.1 79.9 0.5 79.9"></polygon>
            <polygon id="Shape" fill="#FFFFFF" points="11 14.3 42.9 69.1 52.8 51.9 31 14.3"></polygon>
            <path d="M51.5,22.6 C51.5,18 55.3,14.1 60,14.1 C64.7,14.1 68.5,17.9 68.5,22.6 C68.5,27.3 64.7,31.1 60,31.1 C55.3,31.1 51.5,27.3 51.5,22.6 L51.5,22.6 Z" id="Shape" fill="#FFFFFF"></path>
        </g>
    </g>
</svg>