<?xml version="1.0" encoding="utf-8"?>
<!-- Generator: Adobe Illustrator 20.1.0, SVG Export Plug-In . SVG Version: 6.00 Build 0)  -->
<svg version="1.1" id="Capa_1" xmlns="http://www.w3.org/2000/svg" xmlns:xlink="http://www.w3.org/1999/xlink" x="0px" y="0px"
	 viewBox="0 0 841.9 595.3" style="enable-background:new 0 0 841.9 595.3;" xml:space="preserve">
<style type="text/css">
	.st0{fill-rule:evenodd;clip-rule:evenodd;}
	.st1{fill:#E30613;}
	.st2{fill:#FFFFFF;}
</style>
<g>
	<path class="st0" d="M335.9,326.8h8v-38.3l-14.2,2.6v1.6c4.9,0.2,6.2,1.5,6.2,7.2V326.8L335.9,326.8z M340,282.2
		c2.8,0,5.2-2.3,5.2-5.1c0-2.8-2.4-5-5.1-5c-2.8,0-5.1,2.3-5.1,5C335,279.9,337.3,282.2,340,282.2L340,282.2z"/>
	<path d="M378.7,322.2c-1.9,0.6-5.2,1.1-7.7,1.1c-7.3,0-12.8-6.5-12.8-18.4c0-7.7,1.2-13.7,6.7-13.7c5,0,5.8,5,5.8,8.3h9.5
		c0-6.5-5.9-11-14.8-11c-11.5,0-16,8-16,19.1c0,12.1,6.7,20.1,17.9,20.1c6.7,0,8.5-0.9,11.4-1.9V322.2L378.7,322.2z"/>
	<path class="st0" d="M413.2,322c-1.4,0.6-4.2,1.4-7.6,1.4c-11.3,0-14.6-11.4-14.6-19.5h22.9c0-5.4-1.1-15.4-14.9-15.4
		c-10.8,0-16.9,5.5-16.9,18.3c0,13.4,7.4,20.9,19.7,20.9c5.5,0,9.8-1.6,11.3-2.2V322L413.2,322z M391,300.7c0-3.1,1.7-9.4,7.7-9.4
		c7,0,7.2,7.6,7.2,9.4H391L391,300.7z"/>
	<path d="M420.6,326.8h8v-19.6c0-5.7,4.6-13.2,9.9-13.2c5.4,0,5.4,5.6,5.4,12v20.8h8v-26.9c0-6.2-2.4-11.3-9.7-11.3
		c-8,0-12.2,7.5-13.4,10.3h-0.2v-10.3l-14.5,2.6v1.6c5.1,0.2,6.4,1.5,6.4,7.2V326.8L420.6,326.8z"/>
	<path d="M480.4,289.9c-1.4-0.3-4.9-1.4-9-1.4c-9.5,0-13.4,5-13.4,10.8c0,11.1,17.6,11.6,17.6,19.5c0,2.8-1.8,5.4-6.9,5.4
		c-4.5,0-8.3-2.6-10.6-4.2v6.3c1.8,0.5,5.4,1.4,10.3,1.4c8,0,14.5-3.2,14.5-11.1c0-12.3-17.6-12.5-17.6-20.1c0-3.5,3.1-4.4,5.6-4.4
		c4.5,0,8.4,3.1,9.6,3.9V289.9L480.4,289.9z"/>
	<path d="M517.5,326.8h7l19.6-54.1h-5.2l-15.4,44.1h-0.2l-15.8-44.1H492v1.8c6.4,1.2,7.2,1.2,9.7,8.5L517.5,326.8L517.5,326.8z"/>
	<path class="st0" d="M549.7,326.8h8v-38.3l-14.2,2.6v1.6c4.9,0.2,6.2,1.5,6.2,7.2V326.8L549.7,326.8z M553.8,282.2
		c2.8,0,5.2-2.3,5.2-5.1c0-2.8-2.4-5-5.1-5c-2.8,0-5.1,2.3-5.1,5C548.8,279.9,551,282.2,553.8,282.2L553.8,282.2z"/>
	<path d="M580.4,326.8h5.9l14.4-37.4h-4.6l-10.9,28.3l-11.3-28.3h-13.4v1.6c5.5,0.5,6.4,1.8,8.4,7.2L580.4,326.8L580.4,326.8z"/>
	<path class="st0" d="M631.7,322c-1.4,0.6-4.2,1.4-7.6,1.4c-11.3,0-14.6-11.4-14.6-19.5h22.9c0-5.4-1.1-15.4-14.9-15.4
		c-10.8,0-16.9,5.5-16.9,18.3c0,13.4,7.4,20.9,19.7,20.9c5.5,0,9.8-1.6,11.3-2.2V322L631.7,322z M609.5,300.7c0-3.1,1.7-9.4,7.7-9.4
		c7,0,7.2,7.6,7.2,9.4H609.5L609.5,300.7z"/>
	<path d="M659.3,289.9c-1.4-0.3-4.9-1.4-9-1.4c-9.5,0-13.4,5-13.4,10.8c0,11.1,17.6,11.6,17.6,19.5c0,2.8-1.8,5.4-6.9,5.4
		c-4.5,0-8.3-2.6-10.6-4.2v6.3c1.8,0.5,5.4,1.4,10.3,1.4c8,0,14.5-3.2,14.5-11.1c0-12.3-17.6-12.5-17.6-20.1c0-3.5,3.1-4.4,5.6-4.4
		c4.5,0,8.4,3.1,9.6,3.9V289.9L659.3,289.9z"/>
	<path d="M303.6,326.8h7l19.6-54.1H325l-15.4,44.1h-0.2l-15.8-44.1h-15.6v1.8c6.4,1.2,7.2,1.2,9.7,8.5L303.6,326.8L303.6,326.8z"/>
	<polygon class="st1" points="177.5,258.3 257.1,258.3 257.1,337.9 177.5,337.9 177.5,258.3 	"/>
	<polygon class="st2" points="188,272.3 219.9,327.1 229.8,309.9 208,272.3 188,272.3 	"/>
	<path class="st2" d="M228.5,280.6c0-4.6,3.8-8.5,8.5-8.5c4.7,0,8.5,3.8,8.5,8.5c0,4.7-3.8,8.5-8.5,8.5
		C232.3,289.1,228.5,285.3,228.5,280.6L228.5,280.6z"/>
</g>
</svg>
